<svg width="200" height="200" viewBox="0 0 24 24" fill="none" xmlns="http://www.w3.org/2000/svg">
  <defs>
    <linearGradient id="botGradient" x1="0" y1="0" x2="24" y2="24" gradientUnits="userSpaceOnUse">
      <stop offset="0%" stop-color="#89CFF0" />
      <stop offset="100%" stop-color="#AEC6CF" />
    </linearGradient>
  </defs>
  <path d="M19 9h-2V7c0-1.1-.9-2-2-2h-2V3c0-.55-.45-1-1-1s-1 .45-1 1v2H9C7.9 5 7 5.9 7 7v2H5c-1.1 0-2 .9-2 2v4c0 1.1.9 2 2 2h2v2c0 1.1.9 2 2 2h6c1.1 0 2-.9 2-2v-2h2c1.1 0 2-.9 2-2v-4c0-1.1-.9-2-2-2zm-6 8H9v-2h4v2zm2-4c-.55 0-1-.45-1-1s.45-1 1-1 1 .45 1 1-.45 1-1 1zm-6 0c-.55 0-1-.45-1-1s.45-1 1-1 1 .45 1 1-.45 1-1 1z" fill="url(#botGradient)"/>
</svg>
